<?xml version="1.0" encoding="UTF-8" standalone="no"?>
<!DOCTYPE svg PUBLIC "-//W3C//DTD SVG 1.1//EN"
 "http://www.w3.org/Graphics/SVG/1.1/DTD/svg11.dtd">
<!-- Generated by graphviz version 2.43.0 (0)
 -->
<!-- Title: %3 Pages: 1 -->
<svg width="1026pt" height="554pt"
 viewBox="0.00 0.00 1025.59 554.00" xmlns="http://www.w3.org/2000/svg" xmlns:xlink="http://www.w3.org/1999/xlink">
<g id="graph0" class="graph" transform="scale(1 1) rotate(0) translate(4 550)">
<title>%3</title>
<polygon fill="white" stroke="transparent" points="-4,4 -4,-550 1021.59,-550 1021.59,4 -4,4"/>
<!-- A -->
<g id="node1" class="node">
<title>A</title>
<ellipse fill="white" stroke="black" cx="545.5" cy="-528" rx="99.38" ry="18"/>
<text text-anchor="middle" x="545.5" y="-524.3" font-family="Helvetica,sans-Serif" font-size="14.00">Start Raw Text Data</text>
</g>
<!-- B -->
<g id="node2" class="node">
<title>B</title>
<polygon fill="white" stroke="black" points="600.5,-474 490.5,-474 490.5,-436 600.5,-436 600.5,-474"/>
<text text-anchor="middle" x="545.5" y="-458.8" font-family="Helvetica,sans-Serif" font-size="14.00">Text Cleaning</text>
<text text-anchor="middle" x="545.5" y="-443.8" font-family="Helvetica,sans-Serif" font-size="14.00">(spaCy)</text>
</g>
<!-- A&#45;&gt;B -->
<g id="edge1" class="edge">
<title>A&#45;&gt;B</title>
<path fill="none" stroke="black" d="M545.5,-509.81C545.5,-502.11 545.5,-492.82 545.5,-484.15"/>
<polygon fill="black" stroke="black" points="549,-484.02 545.5,-474.02 542,-484.02 549,-484.02"/>
</g>
<!-- C -->
<g id="node3" class="node">
<title>C</title>
<polygon fill="white" stroke="black" points="628.5,-400 462.5,-400 462.5,-362 628.5,-362 628.5,-400"/>
<text text-anchor="middle" x="545.5" y="-384.8" font-family="Helvetica,sans-Serif" font-size="14.00">Tokenization and</text>
<text text-anchor="middle" x="545.5" y="-369.8" font-family="Helvetica,sans-Serif" font-size="14.00">Vectorization (TF&#45;IDF)</text>
</g>
<!-- B&#45;&gt;C -->
<g id="edge2" class="edge">
<title>B&#45;&gt;C</title>
<path fill="none" stroke="black" d="M545.5,-435.83C545.5,-428.13 545.5,-418.97 545.5,-410.42"/>
<polygon fill="black" stroke="black" points="549,-410.41 545.5,-400.41 542,-410.41 549,-410.41"/>
</g>
<!-- D1 -->
<g id="node4" class="node">
<title>D1</title>
<polygon fill="white" stroke="black" points="187,-326 0,-326 0,-290 187,-290 187,-326"/>
<text text-anchor="middle" x="93.5" y="-304.3" font-family="Helvetica,sans-Serif" font-size="14.00">Multinomial Naive Bayes</text>
</g>
<!-- C&#45;&gt;D1 -->
<g id="edge3" class="edge">
<title>C&#45;&gt;D1</title>
<path fill="none" stroke="black" d="M462.25,-367.36C393.87,-356.92 294.2,-341.58 197.22,-326.11"/>
<polygon fill="black" stroke="black" points="197.67,-322.63 187.24,-324.51 196.57,-329.55 197.67,-322.63"/>
</g>
<!-- D2 -->
<g id="node5" class="node">
<title>D2</title>
<polygon fill="white" stroke="black" points="300,-326 205,-326 205,-290 300,-290 300,-326"/>
<text text-anchor="middle" x="252.5" y="-304.3" font-family="Helvetica,sans-Serif" font-size="14.00">Linear SVM</text>
</g>
<!-- C&#45;&gt;D2 -->
<g id="edge4" class="edge">
<title>C&#45;&gt;D2</title>
<path fill="none" stroke="black" d="M462.45,-362.38C419.56,-352.95 366.21,-340.72 309.83,-326"/>
<polygon fill="black" stroke="black" points="310.58,-322.58 300.02,-323.42 308.8,-329.35 310.58,-322.58"/>
</g>
<!-- D3 -->
<g id="node6" class="node">
<title>D3</title>
<polygon fill="white" stroke="black" points="467,-326 318,-326 318,-290 467,-290 467,-326"/>
<text text-anchor="middle" x="392.5" y="-304.3" font-family="Helvetica,sans-Serif" font-size="14.00">Logistic Regression</text>
</g>
<!-- C&#45;&gt;D3 -->
<g id="edge5" class="edge">
<title>C&#45;&gt;D3</title>
<path fill="none" stroke="black" d="M506.5,-361.9C485.83,-352.31 460.31,-340.47 438.66,-330.42"/>
<polygon fill="black" stroke="black" points="439.87,-327.12 429.33,-326.09 436.92,-333.47 439.87,-327.12"/>
</g>
<!-- D4 -->
<g id="node7" class="node">
<title>D4</title>
<polygon fill="white" stroke="black" points="606,-326 485,-326 485,-290 606,-290 606,-326"/>
<text text-anchor="middle" x="545.5" y="-304.3" font-family="Helvetica,sans-Serif" font-size="14.00">Random Forest</text>
</g>
<!-- C&#45;&gt;D4 -->
<g id="edge6" class="edge">
<title>C&#45;&gt;D4</title>
<path fill="none" stroke="black" d="M545.5,-361.72C545.5,-353.97 545.5,-344.79 545.5,-336.27"/>
<polygon fill="black" stroke="black" points="549,-336 545.5,-326 542,-336 549,-336"/>
</g>
<!-- D5 -->
<g id="node8" class="node">
<title>D5</title>
<polygon fill="white" stroke="black" points="696.5,-326 624.5,-326 624.5,-290 696.5,-290 696.5,-326"/>
<text text-anchor="middle" x="660.5" y="-304.3" font-family="Helvetica,sans-Serif" font-size="14.00">FinBERT</text>
</g>
<!-- C&#45;&gt;D5 -->
<g id="edge7" class="edge">
<title>C&#45;&gt;D5</title>
<path fill="none" stroke="black" d="M574.82,-361.9C589.86,-352.61 608.33,-341.21 624.27,-331.37"/>
<polygon fill="black" stroke="black" points="626.15,-334.32 632.82,-326.09 622.47,-328.36 626.15,-334.32"/>
</g>
<!-- D6 -->
<g id="node9" class="node">
<title>D6</title>
<polygon fill="white" stroke="black" points="802,-326 715,-326 715,-290 802,-290 802,-326"/>
<text text-anchor="middle" x="758.5" y="-304.3" font-family="Helvetica,sans-Serif" font-size="14.00">DistilBERT</text>
</g>
<!-- C&#45;&gt;D6 -->
<g id="edge8" class="edge">
<title>C&#45;&gt;D6</title>
<path fill="none" stroke="black" d="M599.52,-361.99C631.92,-351.19 672.94,-337.52 705.2,-326.77"/>
<polygon fill="black" stroke="black" points="706.53,-330.01 714.91,-323.53 704.32,-323.37 706.53,-330.01"/>
</g>
<!-- D7 -->
<g id="node10" class="node">
<title>D7</title>
<polygon fill="lightgreen" stroke="black" points="988.5,-326 820.5,-326 820.5,-290 988.5,-290 988.5,-326"/>
<text text-anchor="middle" x="904.5" y="-304.3" font-family="Helvetica,sans-Serif" font-size="14.00">RoBERTa Model (Final)</text>
</g>
<!-- C&#45;&gt;D7 -->
<g id="edge9" class="edge">
<title>C&#45;&gt;D7</title>
<path fill="none" stroke="black" d="M628.76,-363.53C683.09,-352.79 754.1,-338.74 810.46,-327.6"/>
<polygon fill="black" stroke="black" points="811.31,-331 820.44,-325.62 809.95,-324.13 811.31,-331"/>
</g>
<!-- E -->
<g id="node11" class="node">
<title>E</title>
<ellipse fill="white" stroke="black" cx="904.5" cy="-236" rx="113.18" ry="18"/>
<text text-anchor="middle" x="904.5" y="-232.3" font-family="Helvetica,sans-Serif" font-size="14.00">Sentiment Output CSV</text>
</g>
<!-- D7&#45;&gt;E -->
<g id="edge10" class="edge">
<title>D7&#45;&gt;E</title>
<path fill="none" stroke="black" d="M904.5,-289.7C904.5,-281.98 904.5,-272.71 904.5,-264.11"/>
<polygon fill="black" stroke="black" points="908,-264.1 904.5,-254.1 901,-264.1 908,-264.1"/>
</g>
<!-- F -->
<g id="node12" class="node">
<title>F</title>
<polygon fill="white" stroke="black" points="1003,-182 806,-182 806,-146 1003,-146 1003,-182"/>
<text text-anchor="middle" x="904.5" y="-160.3" font-family="Helvetica,sans-Serif" font-size="14.00">Named Entity Recognition</text>
</g>
<!-- E&#45;&gt;F -->
<g id="edge11" class="edge">
<title>E&#45;&gt;F</title>
<path fill="none" stroke="black" d="M904.5,-217.7C904.5,-209.98 904.5,-200.71 904.5,-192.11"/>
<polygon fill="black" stroke="black" points="908,-192.1 904.5,-182.1 901,-192.1 908,-192.1"/>
</g>
<!-- G -->
<g id="node13" class="node">
<title>G</title>
<polygon fill="white" stroke="black" points="992.5,-110 816.5,-110 816.5,-72 992.5,-72 992.5,-110"/>
<text text-anchor="middle" x="904.5" y="-94.8" font-family="Helvetica,sans-Serif" font-size="14.00">BART Model</text>
<text text-anchor="middle" x="904.5" y="-79.8" font-family="Helvetica,sans-Serif" font-size="14.00">(Summary Generation)</text>
</g>
<!-- F&#45;&gt;G -->
<g id="edge12" class="edge">
<title>F&#45;&gt;G</title>
<path fill="none" stroke="black" d="M904.5,-145.81C904.5,-138.11 904.5,-128.82 904.5,-120.15"/>
<polygon fill="black" stroke="black" points="908,-120.02 904.5,-110.02 901,-120.02 908,-120.02"/>
</g>
<!-- H -->
<g id="node14" class="node">
<title>H</title>
<ellipse fill="white" stroke="black" cx="904.5" cy="-18" rx="52.79" ry="18"/>
<text text-anchor="middle" x="904.5" y="-14.3" font-family="Helvetica,sans-Serif" font-size="14.00">Final CSV</text>
</g>
<!-- G&#45;&gt;H -->
<g id="edge13" class="edge">
<title>G&#45;&gt;H</title>
<path fill="none" stroke="black" d="M904.5,-71.72C904.5,-63.97 904.5,-54.79 904.5,-46.27"/>
<polygon fill="black" stroke="black" points="908,-46 904.5,-36 901,-46 908,-46"/>
</g>
</g>
</svg>
