<?xml version="1.0" encoding="UTF-8" standalone="no"?>
<!DOCTYPE svg PUBLIC "-//W3C//DTD SVG 1.1//EN"
 "http://www.w3.org/Graphics/SVG/1.1/DTD/svg11.dtd">
<!-- Generated by graphviz version 2.43.0 (0)
 -->
<!-- Title: %3 Pages: 1 -->
<svg width="296pt" height="564pt"
 viewBox="0.00 0.00 296.00 564.00" xmlns="http://www.w3.org/2000/svg" xmlns:xlink="http://www.w3.org/1999/xlink">
<g id="graph0" class="graph" transform="scale(1 1) rotate(0) translate(4 560)">
<title>%3</title>
<polygon fill="white" stroke="transparent" points="-4,4 -4,-560 292,-560 292,4 -4,4"/>
<!-- A -->
<g id="node1" class="node">
<title>A</title>
<polygon fill="white" stroke="black" points="231,-556 57,-556 57,-518 231,-518 231,-556"/>
<text text-anchor="middle" x="144" y="-540.8" font-family="Helvetica,sans-Serif" font-size="14.00">Step 1:</text>
<text text-anchor="middle" x="144" y="-525.8" font-family="Helvetica,sans-Serif" font-size="14.00">Input Raw Twitter Data</text>
</g>
<!-- B -->
<g id="node2" class="node">
<title>B</title>
<polygon fill="white" stroke="black" points="242.5,-482 45.5,-482 45.5,-444 242.5,-444 242.5,-482"/>
<text text-anchor="middle" x="144" y="-466.8" font-family="Helvetica,sans-Serif" font-size="14.00">Step 2:</text>
<text text-anchor="middle" x="144" y="-451.8" font-family="Helvetica,sans-Serif" font-size="14.00">Clean Text (spaCy, Regex)</text>
</g>
<!-- A&#45;&gt;B -->
<g id="edge1" class="edge">
<title>A&#45;&gt;B</title>
<path fill="none" stroke="black" d="M144,-517.83C144,-510.13 144,-500.97 144,-492.42"/>
<polygon fill="black" stroke="black" points="147.5,-492.41 144,-482.41 140.5,-492.41 147.5,-492.41"/>
</g>
<!-- C -->
<g id="node3" class="node">
<title>C</title>
<polygon fill="white" stroke="black" points="255,-408 33,-408 33,-370 255,-370 255,-408"/>
<text text-anchor="middle" x="144" y="-392.8" font-family="Helvetica,sans-Serif" font-size="14.00">Step 3:</text>
<text text-anchor="middle" x="144" y="-377.8" font-family="Helvetica,sans-Serif" font-size="14.00">Convert Text to TF&#45;IDF Tokens</text>
</g>
<!-- B&#45;&gt;C -->
<g id="edge2" class="edge">
<title>B&#45;&gt;C</title>
<path fill="none" stroke="black" d="M144,-443.83C144,-436.13 144,-426.97 144,-418.42"/>
<polygon fill="black" stroke="black" points="147.5,-418.41 144,-408.41 140.5,-418.41 147.5,-418.41"/>
</g>
<!-- D -->
<g id="node4" class="node">
<title>D</title>
<polygon fill="white" stroke="black" points="288,-334 0,-334 0,-296 288,-296 288,-334"/>
<text text-anchor="middle" x="144" y="-318.8" font-family="Helvetica,sans-Serif" font-size="14.00">Step 4:</text>
<text text-anchor="middle" x="144" y="-303.8" font-family="Helvetica,sans-Serif" font-size="14.00">Run Sentiment Analysis using RoBERTa</text>
</g>
<!-- C&#45;&gt;D -->
<g id="edge3" class="edge">
<title>C&#45;&gt;D</title>
<path fill="none" stroke="black" d="M144,-369.83C144,-362.13 144,-352.97 144,-344.42"/>
<polygon fill="black" stroke="black" points="147.5,-344.41 144,-334.41 140.5,-344.41 147.5,-344.41"/>
</g>
<!-- E -->
<g id="node5" class="node">
<title>E</title>
<polygon fill="white" stroke="black" points="259,-260 29,-260 29,-222 259,-222 259,-260"/>
<text text-anchor="middle" x="144" y="-244.8" font-family="Helvetica,sans-Serif" font-size="14.00">Step 5:</text>
<text text-anchor="middle" x="144" y="-229.8" font-family="Helvetica,sans-Serif" font-size="14.00">Save Sentiment Output to CSV</text>
</g>
<!-- D&#45;&gt;E -->
<g id="edge4" class="edge">
<title>D&#45;&gt;E</title>
<path fill="none" stroke="black" d="M144,-295.83C144,-288.13 144,-278.97 144,-270.42"/>
<polygon fill="black" stroke="black" points="147.5,-270.41 144,-260.41 140.5,-270.41 147.5,-270.41"/>
</g>
<!-- F -->
<g id="node6" class="node">
<title>F</title>
<polygon fill="white" stroke="black" points="263,-186 25,-186 25,-148 263,-148 263,-186"/>
<text text-anchor="middle" x="144" y="-170.8" font-family="Helvetica,sans-Serif" font-size="14.00">Step 6:</text>
<text text-anchor="middle" x="144" y="-155.8" font-family="Helvetica,sans-Serif" font-size="14.00">Extract Stock Names using NER</text>
</g>
<!-- E&#45;&gt;F -->
<g id="edge5" class="edge">
<title>E&#45;&gt;F</title>
<path fill="none" stroke="black" d="M144,-221.83C144,-214.13 144,-204.97 144,-196.42"/>
<polygon fill="black" stroke="black" points="147.5,-196.41 144,-186.41 140.5,-196.41 147.5,-196.41"/>
</g>
<!-- G -->
<g id="node7" class="node">
<title>G</title>
<polygon fill="white" stroke="black" points="280.5,-112 7.5,-112 7.5,-74 280.5,-74 280.5,-112"/>
<text text-anchor="middle" x="144" y="-96.8" font-family="Helvetica,sans-Serif" font-size="14.00">Step 7:</text>
<text text-anchor="middle" x="144" y="-81.8" font-family="Helvetica,sans-Serif" font-size="14.00">Generate Summary with BART Model</text>
</g>
<!-- F&#45;&gt;G -->
<g id="edge6" class="edge">
<title>F&#45;&gt;G</title>
<path fill="none" stroke="black" d="M144,-147.83C144,-140.13 144,-130.97 144,-122.42"/>
<polygon fill="black" stroke="black" points="147.5,-122.41 144,-112.41 140.5,-122.41 147.5,-122.41"/>
</g>
<!-- H -->
<g id="node8" class="node">
<title>H</title>
<polygon fill="white" stroke="black" points="256.5,-38 31.5,-38 31.5,0 256.5,0 256.5,-38"/>
<text text-anchor="middle" x="144" y="-22.8" font-family="Helvetica,sans-Serif" font-size="14.00">Step 8:</text>
<text text-anchor="middle" x="144" y="-7.8" font-family="Helvetica,sans-Serif" font-size="14.00">Save Final CSV with Summary</text>
</g>
<!-- G&#45;&gt;H -->
<g id="edge7" class="edge">
<title>G&#45;&gt;H</title>
<path fill="none" stroke="black" d="M144,-73.83C144,-66.13 144,-56.97 144,-48.42"/>
<polygon fill="black" stroke="black" points="147.5,-48.41 144,-38.41 140.5,-48.41 147.5,-48.41"/>
</g>
</g>
</svg>
